{"title":"BBC Proms 2016 - David Bowie","uid":15445838,"size":2285083054,"categoryP":"video","categoryS":"hd___movies","magnet":"?xt=urn:btih:21919e2ff8f0bcfa9441d5b1777a6ccc42b679d6&amp;dn=BBC+Proms+2016+-+David+Bowie&amp;tr=udp%3A%2F%2Ftracker.leechers-paradise.org%3A6969&amp;tr=udp%3A%2F%2Fzer0day.ch%3A1337&amp;tr=udp%3A%2F%2Fopen.demonii.com%3A1337&amp;tr=udp%3A%2F%2Ftracker.coppersurfer.tk%3A6969&amp;tr=udp%3A%2F%2Fexodus.desync.com%3A6969","seeders":14,"leechers":3,"uploader":"RoaElson","files":2,"time":1469880941,"description":"BBC Proms 2016: David Bowie\r\n\r\nA celebration and reinterpretation of the music of the late David Bowie with the Berlin-based musicians' collective Stargaze and its artistic director André de Ridder. They are joined by guest singers and collaborators including Marc Almond, Laura Mvula, John Cale, Paul Buchanan, Conor O'Brien, Amanda Palmer and countertenor Phillippe Jaroussky, and with arrangements from Jherek Bischoff, David Lang, Anna Meredith, Greg Saunier, Josephine Stephenson and Michael Van der Aa. This rare collaboration promises to deliver a unique re-imagining of the Bowie catalogue with fresh interpretations of his classic works.\r\n\r\nBroadcast: 29 June 2016\r\nDuration: 105 minutes\r\n\r\n\r\nMedia info:-\r\n\r\nGeneral\r\nFormat : MPEG-4\r\nFormat profile : Base Media\r\nCodec ID : isom (isom/iso2/avc1/mp41)\r\nFile size : 2.13 GiB\r\nDuration : 2h 6mn\r\nOverall bit rate mode : Variable\r\nOverall bit rate : 2 416 Kbps\r\n\r\n\r\nVideo\r\nID : 1\r\nFormat : AVC\r\nFormat/Info : Advanced Video Codec\r\nFormat profile :   \r\nFormat settings, CABAC : Yes\r\nFormat settings, ReFrames : 2 frames\r\nCodec ID : avc1\r\nCodec ID/Info : Advanced Video Coding\r\nDuration : 2h 6mn\r\nBit rate mode : Variable\r\nBit rate : 2 317 Kbps\r\nMaximum bit rate : 3 500 Kbps\r\nWidth : 1 280 pixels\r\nHeight : 720 pixels\r\nDisplay aspect ratio : 16:9\r\nFrame rate mode : Constant\r\nFrame rate : 25.000 fps\r\nColor space : YUV\r\nChroma subsampling : 4:2:0\r\nBit depth : 8 bits\r\nScan type : Progressive\r\nBits/(Pixel*Frame) : 0.101\r\nStream size : 2.04 GiB (96%)\r\n\r\n\r\nAudio\r\nID : 2\r\nFormat : AAC\r\nFormat/Info : Advanced Audio Codec\r\nFormat profile : LC\r\nCodec ID : 40\r\nDuration : 2h 6mn\r\nBit rate mode : Constant\r\nBit rate : 93.5 Kbps\r\nChannel(s) : 2 channels\r\nChannel positions : Front: L R\r\nSampling rate : 48.0 KHz\r\nFrame rate : 46.875 fps (1024 spf)\r\nCompression mode : Lossy\r\nStream size : 84.3 MiB (4%)\r\nDefault : Yes\r\nAlternate group : 1","torrent":{"xt":"urn:btih:21919e2ff8f0bcfa9441d5b1777a6ccc42b679d6","amp;dn":"BBC+Proms+2016+-+David+Bowie","amp;tr":["udp%3A%2F%2Ftracker.leechers-paradise.org%3A6969","udp%3A%2F%2Fzer0day.ch%3A1337","udp%3A%2F%2Fopen.demonii.com%3A1337","udp%3A%2F%2Ftracker.coppersurfer.tk%3A6969","udp%3A%2F%2Fexodus.desync.com%3A6969"],"infoHash":"21919e2ff8f0bcfa9441d5b1777a6ccc42b679d6","infoHashBuffer":{"type":"Buffer","data":[33,145,158,47,248,240,188,250,148,65,213,177,119,122,108,204,66,182,121,214]},"announce":[],"urlList":[]}}